<?xml version="1.0" encoding="UTF-8"?>
<svg viewBox="0 0 1530 990" xmlns="http://www.w3.org/2000/svg">
 <g fill="#00112b">
  <path d="m549.95 78.411c-21.973 0-43.58 1.4135-64.719 4.2188l1.4062 0.34375c4.3385-0.13055 8.6905-0.1875 13.063-0.1875 189.27 0 358.48 118.76 394 282.91 19.83-11.739 31.538-31.095 31.469-53.562 1.9503 3.9524 3.5903 8.0074 4.9063 12.156 9.8877 31.189-1.4924 59.603-26.688 76.281 6.7008 29.165 10.25 59.491 10.25 90.656 0 37.383-5.0919 73.601-14.625 108l56.875 18.5 43.406-59c2.8741-19.179 4.375-38.773 4.375-58.688 0-232.85-203.13-421.62-453.72-421.62zm449.34 480.31c-15.587 104.01-71.999 195.85-153.72 261.12l61.187-17 88.719 126.72 34.437-185.88 167.17-94.871-164.67-11.285 39-176.84zm-153.72 261.12-101.88 28.344 147.03-152.06-16.938-29.844c-66.441 137.98-208.98 220.95-374.09 220.95-80.412 0-155.45-10.209-218.97-49.359-1.0512-0.20704-2.1081-0.41107-3.1562-0.625 75.856 52.988 170.17 84.375 272.38 84.375 112.93 0 216.22-38.352 295.62-101.78zm-564.84 18.031c29.738 5.8567 60.629 8.9375 92.312 8.9375 152.89 0 287.15-71.816 363.62-180.12-18.046-8.4715-39.557-8.8138-58.469 0.96875-1.8382 0.95087-3.6037 1.998-5.3126 3.0938 5.1804-8.2372 12.652-15.32 22.063-20.188 17.338-8.9684 37.015-8.2589 52.344 0.21875 2.5397-4.0074 5.0219-8.061 7.4063-12.156-14.539-9.121-32.211-13.424-50.563-11.031-8.0329 1.0473-15.596 3.3041-22.562 6.5625-67.227 115.16-195.73 193.03-343.25 193.03-29.927 0-59.083-3.2114-87.094-9.2812 9.5223 7.0632 19.366 13.722 29.5 19.969zm400.84-203.72c9.2695-15.88 17.391-32.464 24.219-49.656-38.077 11.278-64.083 47.758-61.969 88.406 7.385-16.871 20.754-30.801 37.75-38.75zm24.219-49.656c4.3165-1.2785 8.7711-2.2435 13.375-2.8438 20.846-2.7177 40.949 2.2891 57.469 12.812 17.437-41.986 27.077-87.407 27.281-134.84-13.819-4.5455-25.53-14.934-29.375-27.531-2.2087-7.236-1.4693-14.073 1.5625-19.719 0.1113 2.2063 0.5094 4.4901 1.2188 6.8125 3.5528 11.641 13.968 21.31 26.312 25.812-0.4622-12.614-1.5799-25.062-3.3437-37.344-10.498-3.7738-20.486-8.7403-29.625-14.656-11.377 10.819-25.314 18.973-40.875 23.469 0.7016 7.4798 1.1675 15.031 1.4063 22.625 2.0594 0.2748 4.1684 0.34135 6.3124 0.1875 15.374-1.1031 27.554-13.333 30.344-28.969 0.3578 1.7519 0.5965 3.536 0.7188 5.375 1.3944 20.972-13.638 39.133-33.563 40.562-1.2346 0.0886-2.4767 0.10361-3.6874 0.0625-0.7002 45.099-9.6752 88.263-25.531 128.19zm25.531-128.19c0.0291-1.9014 0.0624-3.8107 0.0624-5.7188 0-3.8537-0.0679-7.6766-0.1874-11.5-10.856-1.4482-20.265-8.6034-25.375-18.75-3.1795 0.11679-6.3193 0.0567-9.4376-0.125 0.0115 0.21957 0.0167 0.43604 0.0313 0.65625 1.3085 19.673 16.572 34.815 34.906 35.438zm-34.938-36.094c-0.4166-8.3096 1.7446-16.154 5.75-22.656-0.3651 2.6082-0.4953 5.2858-0.3124 8.0312 0.3547 5.3402 1.772 10.327 4 14.75 1.0769-0.0396 2.1662-0.11267 3.25-0.1875 7.1621-0.49476 14.082-1.7701 20.719-3.6875-1.3491-14.383-1.2122-22.324-4.2022-36.195-0.0745 5.7996-60.829 10.956-96.606-28.007-25.04-27.27-19.917-75.982-11.036-88.672-11.39 17.799-17.357 39.375-15.781 62.188 3.5643 51.594 44.562 91.543 94.219 94.438zm29.204-39.945c6.7898-1.0304 10.982-9.0248 17.171-11.492-8.4305-9.9367-14.852-21.011-18.594-32.812-6.1183-19.298-4.1173-37.537 4.2813-52.594 0.3073 5.884 1.4112 11.963 3.375 18.156 6.2128 19.598 20.017 37.095 37.937 50.375 4.8122-4.326 9.175-9.152 13.031-14.406-44.68-123.68-156.26-220.11-296.16-254.53-15.554 0.46804-30.89 1.7813-45.969 3.9062 142.22 36.654 254.9 154.08 284.92 293.4zm57.202-42.774c3.2524 9.003 6.1273 18.159 8.6563 27.438 7.9411-15.821 11.876-33.957 10.562-52.969-0.3381-4.9044-1.0085-9.7028-2-14.375-2.7317 14.74-8.7347 28.347-17.219 39.906zm8.6563 27.438c3.8029 13.954 6.7613 28.218 8.8437 42.719 17.132 6.1586 35.619 9.1658 53.969 8.125 19.38-1.0992 36.1-6.5957 49.125-15.219-2.717-11.829-5.9548-23.461-9.6874-34.875-11.303 6.6906-25.227 10.909-41.156 11.812-20.999 1.191-42.238-3.5626-61.094-12.562zm12.187 80.062c0.1595 4.3439 0.2813 8.7149 0.2813 13.094 0 0.51367 2e-3 1.018 0 1.5312 5.6431 1.8562 11.642 2.7569 17.594 2.4062 20.528-1.2093 32.791-16.571 27.375-34.312-0.4746-1.5557-1.0771-3.0805-1.7812-4.5625 0.039 13.226-10.348 23.567-26.188 24.5-5.8494 0.3446-11.76-0.64242-17.281-2.6562zm-27 149.47c-6.3077 15.189-13.659 29.938-21.937 44.156 18.693 11.727 32.204 31.412 35.281 55 2.155 16.521-1.1013 32.494-8.4375 46.125 24.886-18.229 39.338-49.328 35.031-82.344-3.5179-26.966-18.797-49.471-39.938-62.938zm-29.344 56.312c-3.4097 5.3802-6.9429 10.691-10.625 15.906 13 6.1031 24.197 16.433 31.344 30.25 1.51 2.9188 2.7907 5.8932 3.8438 8.9062 2.5512-11.329 1.349-23.397-4.2812-34.281-4.694-9.0743-11.825-16.104-20.281-20.781zm126.5 15.5c10.306-21.402 18.774-43.808 25.219-67.062l-77.656-25.219z"/>
  <path d="m758.93 203.57c-91.667-77.264-222.08-129.6-295.26-119.22 83.176 0.32009 208.9 53.407 298.5 128.93 34.761 29.299 59.574 58.156 73.862 84.018-11.452-27.661-37.515-60.361-77.103-93.729z"/>
  <path d="m449.65 863.02c165.56-2.2431 335.4-61.688 385.34-133.87-70.601 70.208-237.33 124.94-399.15 127.14-62.781 0.85058-116.66-6.3019-158.23-19.452 41.229 17.312 100.55 27.158 172.04 26.189z"/>
  <path d="m646.94 221.92c-51.988-67.262-139.9-127.02-198.85-135.74 64.073 17.48 148.18 76.73 199 142.47 19.714 25.506 31.863 48.67 36.62 67.778-2.1332-19.641-14.316-45.463-36.768-74.511z"/>
  <path d="m626.83 920.95c120.43-13.789 239.28-75.478 269.73-139.13-45.662 63.497-162.63 121.04-280.34 134.52-45.669 5.2288-85.508 3.1579-116.88-4.7887 31.461 11.435 75.485 15.355 127.5 9.3996z"/>
  <path d="m713.46 568.38c44.466-26.992 63.821-78.371 50.312-123.98-19.942 38.13-51.292 72.361-92.494 97.372-23.133 14.042-47.517 24.063-72.184 30.23 34.145 18.476 77.937 18.491 114.37-3.6229z"/>
 </g>
</svg>
